<?xml version="1.0" standalone="no"?>
<!DOCTYPE svg PUBLIC "-//W3C//DTD SVG 20010904//EN"
 "http://www.w3.org/TR/2001/REC-SVG-20010904/DTD/svg10.dtd">
<svg version="1.0" xmlns="http://www.w3.org/2000/svg"
 width="260.000000pt" height="260.000000pt" viewBox="0 0 260.000000 260.000000"
 preserveAspectRatio="xMidYMid meet">
<metadata>
Created by potrace 1.11, written by Peter Selinger 2001-2013
</metadata>
<g transform="translate(0.000000,260.000000) scale(0.100000,-0.100000)"
fill="#000000" stroke="none">
<path d="M0 1300 l0 -1300 1300 0 1300 0 0 1300 0 1300 -1300 0 -1300 0 0
-1300z m1887 497 c100 -29 163 -65 229 -131 106 -106 145 -217 145 -411 0
-136 -15 -207 -63 -303 -38 -76 -133 -169 -210 -205 -109 -52 -157 -59 -410
-64 l-238 -5 0 572 0 572 248 -5 c179 -3 261 -9 299 -20z m-974 -265 c143 -68
207 -185 207 -384 l0 -98 -285 0 -284 0 5 -32 c11 -62 45 -118 87 -146 38 -26
47 -27 156 -26 113 0 140 5 254 50 16 6 18 -1 15 -87 l-3 -94 -70 -23 c-85
-29 -251 -40 -340 -23 -82 15 -175 61 -225 111 -84 84 -129 231 -116 383 12
138 55 238 136 311 80 72 165 97 308 91 77 -3 103 -8 155 -33z"/>
<path d="M1530 1249 l0 -411 133 4 c151 5 216 24 285 83 120 104 159 374 78
550 -63 139 -157 185 -373 185 l-123 0 0 -411z"/>
<path d="M652 1383 c-37 -18 -63 -52 -80 -102 -26 -74 -32 -71 159 -71 l171 0
-7 38 c-10 60 -39 105 -81 129 -47 27 -115 30 -162 6z"/>
</g>
</svg>
