<?xml version="1.0" standalone="no"?>
<!DOCTYPE svg PUBLIC "-//W3C//DTD SVG 20010904//EN"
 "http://www.w3.org/TR/2001/REC-SVG-20010904/DTD/svg10.dtd">
<svg version="1.0" xmlns="http://www.w3.org/2000/svg"
 width="260.000000pt" height="260.000000pt" viewBox="0 0 260.000000 260.000000"
 preserveAspectRatio="xMidYMid meet">
<metadata>
Created by potrace 1.11, written by Peter Selinger 2001-2013
</metadata>
<g transform="translate(0.000000,260.000000) scale(0.100000,-0.100000)"
fill="#000000" stroke="none">
<path d="M0 1300 l0 -1300 1300 0 1300 0 0 1300 0 1300 -1300 0 -1300 0 0
-1300z m1940 506 c192 -63 320 -189 365 -361 18 -69 20 -192 4 -267 -39 -187
-187 -332 -392 -384 -46 -12 -134 -17 -344 -21 l-283 -5 0 532 0 532 298 -4
c250 -4 306 -7 352 -22z m-1147 -231 c123 -32 207 -100 259 -211 25 -53 32
-83 36 -155 l5 -89 -317 0 c-174 0 -316 -2 -316 -5 0 -3 7 -22 16 -43 34 -83
111 -132 216 -140 82 -6 144 10 201 51 l41 30 54 -59 54 -59 -44 -38 c-130
-113 -388 -123 -548 -21 -57 36 -117 105 -147 169 -25 54 -28 70 -28 170 0
135 22 198 95 278 105 115 269 162 423 122z"/>
<path d="M1490 1299 l0 -362 168 6 c183 6 238 18 314 66 173 110 199 396 51
545 -81 82 -169 106 -380 106 l-153 0 0 -361z"/>
<path d="M585 1413 c-61 -32 -124 -113 -125 -160 0 -10 52 -13 225 -13 l225 0
-6 28 c-15 62 -58 114 -121 146 -42 21 -157 21 -198 -1z"/>
</g>
</svg>
